<svg width="35" height="24" viewBox="0 0 35 24" fill="none" xmlns="http://www.w3.org/2000/svg">
    <path
        d="M0.5 4C0.5 1.79086 2.29086 0 4.5 0H31C33.2091 0 35 1.79086 35 4V20C35 22.2091 33.2091 24 31 24H4.5C2.29086 24 0.5 22.2091 0.5 20V4Z"
        fill="white" />
    <path
        d="M1 4C1 2.067 2.567 0.5 4.5 0.5H31C32.933 0.5 34.5 2.067 34.5 4V20C34.5 21.933 32.933 23.5 31 23.5H4.5C2.567 23.5 1 21.933 1 20V4Z"
        stroke="#3C4257" stroke-opacity="0.12" />
    <path fill-rule="evenodd" clip-rule="evenodd"
        d="M10.0223 8.34316C9.73225 8.69506 9.26813 8.97261 8.80402 8.93296C8.746 8.45715 8.97323 7.95161 9.23913 7.63936C9.5292 7.27755 10.0368 7.01983 10.4478 7C10.4961 7.49563 10.3076 7.98135 10.0223 8.34316ZM10.4429 9.02712C10.034 9.003 9.66093 9.15319 9.35958 9.2745C9.16565 9.35256 9.00144 9.41867 8.8765 9.41867C8.7363 9.41867 8.5653 9.34903 8.37331 9.27084L8.37331 9.27084C8.12173 9.16838 7.83412 9.05124 7.5325 9.05686C6.84116 9.06677 6.19817 9.46824 5.84525 10.1076C5.12007 11.3863 5.6567 13.2796 6.35771 14.3205C6.70096 14.8359 7.1119 15.4009 7.65336 15.3811C7.89158 15.3719 8.06293 15.2973 8.24027 15.2202C8.44444 15.1314 8.65653 15.0391 8.98769 15.0391C9.30738 15.0391 9.51019 15.129 9.70489 15.2152C9.89001 15.2973 10.0678 15.376 10.3317 15.3712C10.8925 15.3613 11.2454 14.8557 11.5887 14.3403C11.9591 13.7871 12.1219 13.2471 12.1466 13.1652L12.1495 13.1557C12.1489 13.1551 12.1443 13.153 12.1362 13.1492C12.0124 13.0911 11.0659 12.6469 11.0569 11.4557C11.0478 10.4559 11.8076 9.94935 11.9272 9.86961C11.9345 9.86476 11.9394 9.86149 11.9416 9.85978C11.4581 9.12625 10.704 9.04695 10.4429 9.02712ZM14.325 15.3167V7.58979H17.1532C18.6133 7.58979 19.6334 8.6207 19.6334 10.1274C19.6334 11.6341 18.5939 12.675 17.1146 12.675H15.495V15.3167H14.325ZM15.4949 8.60088H16.8437C17.859 8.60088 18.4391 9.15598 18.4391 10.1324C18.4391 11.1088 17.859 11.6688 16.8389 11.6688H15.4949V8.60088ZM23.4962 14.3898C23.1868 14.9945 22.5051 15.3761 21.7703 15.3761C20.6825 15.3761 19.9235 14.712 19.9235 13.7108C19.9235 12.7196 20.6583 12.1496 22.0168 12.0653L23.4769 11.9761V11.5499C23.4769 10.9204 23.0756 10.5784 22.3601 10.5784C21.7703 10.5784 21.34 10.8907 21.253 11.3665H20.1991C20.2329 10.3653 21.1515 9.63675 22.3939 9.63675C23.7331 9.63675 24.6033 10.3554 24.6033 11.4706V15.3167H23.5204V14.3898H23.4962ZM22.0844 14.4592C21.4608 14.4592 21.0644 14.1519 21.0644 13.6811C21.0644 13.1954 21.4463 12.9129 22.1763 12.8683L23.4768 12.784V13.2202C23.4768 13.9438 22.8773 14.4592 22.0844 14.4592ZM28.1953 15.619C27.7264 16.9721 27.1897 17.4181 26.0488 17.4181C25.9618 17.4181 25.6717 17.4082 25.604 17.3884V16.4616C25.6765 16.4715 25.8554 16.4814 25.9473 16.4814C26.4646 16.4814 26.7546 16.2584 26.9335 15.6785L27.0399 15.3365L25.0577 9.71111H26.2808L27.6587 14.2759H27.6829L29.0607 9.71111H30.25L28.1953 15.619Z"
        fill="black" />
</svg>
    