<svg width="16" height="17" viewBox="0 0 16 17" fill="none" xmlns="http://www.w3.org/2000/svg">
    <path fill-rule="evenodd" clip-rule="evenodd"
        d="M3.41697 7.35H15C15.2652 7.35 15.5195 7.45535 15.7071 7.64289C15.8946 7.83043 16 8.08478 16 8.35C16 8.61521 15.8946 8.86957 15.7071 9.0571C15.5195 9.24464 15.2652 9.35 15 9.35H3.41697L8.00797 13.941C8.19574 14.1286 8.30129 14.3832 8.30138 14.6486C8.30147 14.9141 8.19611 15.1687 8.00847 15.3565C7.82083 15.5443 7.56628 15.6498 7.30082 15.6499C7.03537 15.65 6.78074 15.5446 6.59297 15.357L0.29297 9.057C0.105499 8.86947 0.000183105 8.61516 0.000183105 8.35C0.000183105 8.08483 0.105499 7.83052 0.29297 7.643L6.59297 1.343C6.78088 1.15535 7.03562 1.05004 7.30118 1.05023C7.56673 1.05042 7.82133 1.15609 8.00897 1.344C8.19661 1.5319 8.30192 1.78665 8.30173 2.0522C8.30155 2.31775 8.19588 2.57235 8.00797 2.76L3.41697 7.35Z"
        fill="#8792A2" />
</svg>
    