<svg width="35" height="24" viewBox="0 0 35 24" fill="none" xmlns="http://www.w3.org/2000/svg">
    <path
        d="M0.5 4C0.5 1.79086 2.29086 0 4.5 0H31C33.2091 0 35 1.79086 35 4V20C35 22.2091 33.2091 24 31 24H4.5C2.29086 24 0.5 22.2091 0.5 20V4Z"
        fill="white" />
    <path
        d="M1 4C1 2.067 2.567 0.5 4.5 0.5H31C32.933 0.5 34.5 2.067 34.5 4V20C34.5 21.933 32.933 23.5 31 23.5H4.5C2.567 23.5 1 21.933 1 20V4Z"
        stroke="#3C4257" stroke-opacity="0.12" />
    <path fill-rule="evenodd" clip-rule="evenodd"
        d="M16.5578 15.528V12.5933H18.0725C18.6931 12.5933 19.217 12.3854 19.644 11.9752L19.7465 11.8712C20.5266 11.022 20.4754 9.69913 19.644 8.91347C19.2284 8.49754 18.6589 8.27224 18.0725 8.28379H15.6411V15.528H16.5578ZM16.5579 11.7036V9.17338H18.0956C18.4259 9.17338 18.7391 9.30047 18.9726 9.53154C19.4681 10.0168 19.4795 10.8256 19.0011 11.3281C18.7676 11.5766 18.4373 11.7152 18.0956 11.7036H16.5579ZM24.0228 10.9585C23.6299 10.5945 23.0947 10.4097 22.4171 10.4097C21.5459 10.4097 20.8911 10.7332 20.4583 11.3744L21.2669 11.8885C21.563 11.4495 21.9672 11.23 22.4797 11.23C22.8043 11.23 23.1174 11.3513 23.3623 11.5708C23.6014 11.7788 23.7381 12.0792 23.7381 12.3969V12.6106C23.3851 12.4142 22.9409 12.3102 22.3943 12.3102C21.7566 12.3102 21.2441 12.4604 20.8626 12.7666C20.4811 13.0728 20.2875 13.4772 20.2875 13.9913C20.2761 14.4592 20.4754 14.9041 20.8284 15.2045C21.1871 15.528 21.6427 15.6897 22.1779 15.6897C22.81 15.6897 23.311 15.4067 23.6925 14.8405H23.7324V15.528H24.6093V12.472C24.6093 11.8308 24.4157 11.3224 24.0228 10.9585ZM21.5346 14.6152C21.3467 14.4766 21.2328 14.2513 21.2328 14.0087C21.2328 13.7372 21.3581 13.5119 21.603 13.3328C21.8536 13.1537 22.1668 13.0613 22.537 13.0613C23.0495 13.0555 23.4482 13.171 23.7329 13.4021C23.7329 13.7949 23.5791 14.1358 23.2773 14.4246C23.0039 14.7019 22.6338 14.8579 22.2465 14.8579C21.9902 14.8636 21.7397 14.777 21.5346 14.6152ZM26.5795 17.7058L29.6429 10.5714H28.6464L27.2286 14.13H27.2115L25.7595 10.5714H24.7631L26.7731 15.2102L25.6342 17.7058H26.5795Z"
        fill="#3C4043" />
    <path
        d="M13.3929 11.9579C13.3929 11.6748 13.3701 11.3918 13.3246 11.1145H9.45828V12.7147H11.6733C11.5822 13.2288 11.2861 13.691 10.8533 13.9798V15.0196H12.1744C12.9488 14.2975 13.3929 13.2288 13.3929 11.9579Z"
        fill="#4285F4" />
    <path
        d="M9.45848 16.0248C10.5631 16.0248 11.497 15.6551 12.1746 15.0197L10.8535 13.9798C10.4834 14.234 10.0108 14.3784 9.45848 14.3784C8.38799 14.3784 7.48263 13.6448 7.15807 12.6627H5.79718V13.7372C6.49186 15.141 7.90969 16.0248 9.45848 16.0248Z"
        fill="#34A853" />
    <path
        d="M7.15819 12.6627C6.98734 12.1486 6.98734 11.5882 7.15819 11.0683V9.99956H5.79709C5.2105 11.1723 5.2105 12.5587 5.79709 13.7314L7.15819 12.6627Z"
        fill="#FBBC04" />
    <path
        d="M9.45848 9.35253C10.045 9.34098 10.6087 9.56628 11.03 9.97643L12.203 8.7864C11.4571 8.08162 10.4777 7.69457 9.45848 7.70612C7.90969 7.70612 6.49186 8.59576 5.79718 9.99954L7.15807 11.074C7.48263 10.0862 8.38799 9.35253 9.45848 9.35253Z"
        fill="#EA4335" />
</svg>
    