<svg width="34" height="24" viewBox="0 0 34 24" fill="none" xmlns="http://www.w3.org/2000/svg">
    <path
        d="M0 4C0 1.79086 1.79086 0 4 0H30C32.2091 0 34 1.79086 34 4V20C34 22.2091 32.2091 24 30 24H4C1.79086 24 0 22.2091 0 20V4Z"
        fill="white" />
    <path
        d="M0.5 4C0.5 2.067 2.067 0.5 4 0.5H30C31.933 0.5 33.5 2.067 33.5 4V20C33.5 21.933 31.933 23.5 30 23.5H4C2.067 23.5 0.5 21.933 0.5 20V4Z"
        stroke="#3C4257" stroke-opacity="0.12" />
    <path fill-rule="evenodd" clip-rule="evenodd"
        d="M17.179 16.8294C15.9949 17.8275 14.459 18.43 12.7807 18.43C9.03582 18.43 6 15.4303 6 11.73C6 8.02966 9.03582 5.02997 12.7807 5.02997C14.459 5.02997 15.9949 5.63247 17.179 6.63051C18.363 5.63247 19.8989 5.02997 21.5773 5.02997C25.3221 5.02997 28.358 8.02966 28.358 11.73C28.358 15.4303 25.3221 18.43 21.5773 18.43C19.8989 18.43 18.363 17.8275 17.179 16.8294Z"
        fill="#ED0006" />
    <path fill-rule="evenodd" clip-rule="evenodd"
        d="M17.179 16.8294C18.6369 15.6005 19.5614 13.7719 19.5614 11.73C19.5614 9.68801 18.6369 7.85941 17.179 6.63051C18.363 5.63247 19.8989 5.02997 21.5772 5.02997C25.3221 5.02997 28.3579 8.02966 28.3579 11.73C28.3579 15.4303 25.3221 18.43 21.5772 18.43C19.8989 18.43 18.363 17.8275 17.179 16.8294Z"
        fill="#F9A000" />
    <path fill-rule="evenodd" clip-rule="evenodd"
        d="M17.179 16.8294C18.6369 15.6005 19.5614 13.7719 19.5614 11.73C19.5614 9.68804 18.6369 7.85945 17.179 6.63054C15.7211 7.85945 14.7966 9.68804 14.7966 11.73C14.7966 13.7719 15.7211 15.6005 17.179 16.8294Z"
        fill="#FF5E00" />
</svg>
    