<svg width="35" height="24" viewBox="0 0 35 24" fill="none" xmlns="http://www.w3.org/2000/svg">
    <path d="M0.5 4C0.5 1.79086 2.29086 0 4.5 0H31C33.2091 0 35 1.79086 35 4V20C35 22.2091 33.2091 24 31 24H4.5C2.29086 24 0.5 22.2091 0.5 20V4Z" fill="white"/>
    <path d="M1 4C1 2.067 2.567 0.5 4.5 0.5H31C32.933 0.5 34.5 2.067 34.5 4V20C34.5 21.933 32.933 23.5 31 23.5H4.5C2.567 23.5 1 21.933 1 20V4Z" stroke="#3C4257" stroke-opacity="0.12"/>
    <path fill-rule="evenodd" clip-rule="evenodd" d="M15.1142 18.4483L15.3349 16.9992L14.8432 16.9873H12.4953L14.127 6.29368C14.1321 6.2613 14.1485 6.23124 14.1725 6.20986C14.1966 6.18847 14.2274 6.17674 14.2595 6.17674H18.2185C19.5329 6.17674 20.4399 6.45938 20.9134 7.01732C21.1355 7.27906 21.2769 7.55265 21.3453 7.85362C21.4171 8.16949 21.4183 8.54683 21.3483 9.00714L21.3432 9.04062V9.3356L21.5652 9.46561C21.7521 9.56813 21.9007 9.68544 22.0147 9.81973C22.2046 10.0436 22.3274 10.3281 22.3793 10.6652C22.433 11.012 22.4152 11.4248 22.3274 11.892C22.2261 12.4294 22.0623 12.8976 21.8411 13.2805C21.6378 13.6334 21.3786 13.9262 21.0709 14.153C20.7771 14.3686 20.4281 14.5322 20.0335 14.6369C19.651 14.7398 19.215 14.7917 18.7368 14.7917H18.4287C18.2085 14.7917 17.9945 14.8737 17.8265 15.0207C17.658 15.1708 17.5466 15.3758 17.5125 15.6L17.4892 15.7305L17.0992 18.2848L17.0815 18.3785C17.0768 18.4082 17.0688 18.423 17.057 18.433C17.0464 18.4422 17.0313 18.4483 17.0165 18.4483H15.1142Z" fill="#28356A"/>
    <path fill-rule="evenodd" clip-rule="evenodd" d="M21.7756 9.07468C21.7639 9.15276 21.7503 9.23255 21.7352 9.31454C21.2131 12.0852 19.4269 13.0423 17.1456 13.0423H15.9841C15.7051 13.0423 15.4699 13.2517 15.4265 13.5361L14.6634 18.5394C14.6351 18.7262 14.7744 18.8945 14.9567 18.8945H17.0169C17.2608 18.8945 17.468 18.7113 17.5064 18.4626L17.5267 18.3545L17.9146 15.8103L17.9395 15.6707C17.9774 15.4212 18.1852 15.2379 18.4291 15.2379H18.7372C20.7331 15.2379 22.2957 14.4004 22.7524 11.9766C22.9431 10.9641 22.8444 10.1186 22.3396 9.52399C22.1868 9.34473 21.9973 9.19589 21.7756 9.07468Z" fill="#298FC2"/>
    <path fill-rule="evenodd" clip-rule="evenodd" d="M21.2292 8.84962C21.1494 8.82555 21.0671 8.8038 20.9827 8.78413C20.8978 8.76494 20.8109 8.74796 20.7214 8.73305C20.4083 8.68075 20.0651 8.65594 19.6975 8.65594H16.5945C16.518 8.65594 16.4454 8.67379 16.3805 8.70604C16.2373 8.77716 16.131 8.9172 16.1053 9.08864L15.4451 13.4102L15.4262 13.5362C15.4696 13.2517 15.7047 13.0424 15.9837 13.0424H17.1453C19.4265 13.0424 21.2128 12.0847 21.7349 9.31457C21.7505 9.23258 21.7636 9.15279 21.7753 9.07471C21.6432 9.00224 21.5002 8.94029 21.3461 8.8875C21.3081 8.87443 21.2688 8.86184 21.2292 8.84962Z" fill="#22284F"/>
    <path fill-rule="evenodd" clip-rule="evenodd" d="M16.1054 9.08865C16.1312 8.91721 16.2375 8.77718 16.3807 8.70655C16.4461 8.67417 16.5182 8.65633 16.5947 8.65633H19.6977C20.0653 8.65633 20.4085 8.68126 20.7216 8.73356C20.8111 8.74834 20.898 8.76545 20.9829 8.78463C21.0673 8.80418 21.1496 8.82606 21.2294 8.85001C21.269 8.86223 21.3083 8.87493 21.3467 8.88752C21.5007 8.94031 21.6439 9.00275 21.776 9.07472C21.9313 8.05085 21.7747 7.35373 21.2391 6.72248C20.6486 6.02743 19.5829 5.73001 18.2192 5.73001H14.2601C13.9815 5.73001 13.7439 5.93933 13.7009 6.22429L12.0519 17.0279C12.0194 17.2416 12.1789 17.4344 12.3874 17.4344H14.8316L16.1054 9.08865Z" fill="#28356A"/>
    </svg>
    