<svg width="120" height="120" viewBox="0 0 120 120" fill="none" xmlns="http://www.w3.org/2000/svg">
    <path
        d="M60 0C26.8631 0 0 26.8631 0 60C0 93.1387 26.8631 120 60 120C93.1387 120 120 93.1387 120 60C120 26.8631 93.1387 0 60 0ZM60 112.618C31.0519 112.618 7.5 88.9481 7.5 59.9998C7.5 31.0516 31.0519 7.49977 60 7.49977C88.9481 7.49977 112.5 31.0518 112.5 59.9998C112.5 88.9478 88.9481 112.618 60 112.618ZM83.9456 38.0456L48.7424 73.47L32.8893 57.6169C31.4249 56.1525 29.0511 56.1525 27.5849 57.6169C26.1205 59.0812 26.1205 61.455 27.5849 62.9194L46.1455 81.4819C47.6099 82.9444 49.9836 82.9444 51.4499 81.4819C51.6186 81.3131 51.7631 81.1293 51.8944 80.9381L89.2519 43.3499C90.7144 41.8855 90.7144 39.5118 89.2519 38.0456C87.7856 36.5812 85.4119 36.5812 83.9456 38.0456Z"
        fill="#34C759" />
</svg>
    